<?xml version="1.0" encoding="utf-8"?>
<!-- Generator: Adobe Illustrator 22.1.0, SVG Export Plug-In . SVG Version: 6.00 Build 0)  -->
<svg version="1.1" id="Layer_1" xmlns="http://www.w3.org/2000/svg" xmlns:xlink="http://www.w3.org/1999/xlink" x="0px" y="0px"
	 viewBox="0 0 512 512" style="enable-background:new 0 0 512 512;" xml:space="preserve">
<style type="text/css">
	.st0{fill:#E71B3F;}
	.st1{fill:#FFAB00;}
	.st2{fill:#333333;}
	.st3{fill:#BDBDBF;}
	.st4{fill:#AB142F;}
	.st5{fill:#BD7F00;}
	.st6{fill:#008DA2;}
</style>
<path class="st0" d="M256,512l-8.4-5.3c-145-91.9-197-134.1-199.1-135.9l-5.7-4.7v-7.4c0-68.6,4.4-124.7,13.6-171.6
	c9-46.2,22.4-82.4,40.9-110.7C131.3,24.3,181.7,0,256,0s124.7,24.3,158.7,76.4c18.5,28.3,31.9,64.6,40.9,110.7
	c9.1,46.9,13.6,103,13.6,171.6v7.4l-5.7,4.7c-2.1,1.8-54.1,44-199.1,135.9L256,512"/>
<path class="st1" d="M256,428.9l-10.8-10.2c-2.8-2.6-67.4-65-67.4-147.3c0-35.2,12.2-67.3,35.3-92.8c17.4-19.2,35.2-28,36-28.4
	l6.9-3.4l6.9,3.4c0.7,0.4,18.5,9.2,36,28.4c23.1,25.5,35.3,57.5,35.3,92.8c0,82.3-64.6,144.7-67.4,147.3L256,428.9"/>
<path class="st2" d="M359.9,140c0-11.6-9.3-20.9-20.7-20.9c-11.4,0-20.7,9.4-20.7,20.9c0,11.6,9.3,20.9,20.7,20.9
	C350.7,160.9,359.9,151.5,359.9,140"/>
<polyline class="st3" points="264.4,506.7 256.5,511.7 256.5,511.7 264.4,506.7 "/>
<path class="st4" d="M339.3,160.9c-11.4,0-20.7-9.4-20.7-20.9c0-11.6,9.3-20.9,20.7-20.9c11.4,0,20.7,9.4,20.7,20.9
	C359.9,151.5,350.7,160.9,339.3,160.9 M256.5,0v147.1l6.4,3.1c0.7,0.4,18.5,9.2,36,28.4c23.1,25.5,35.3,57.5,35.3,92.8
	c0,82.3-64.6,144.7-67.4,147.3l-10.2,9.7v83.2l7.8-5c145-91.9,197-134.1,199.1-135.9l5.7-4.7v-7.4c0-68.6-4.4-124.7-13.6-171.6
	c-9-46.2-22.4-82.4-40.9-110.7l0,0C380.8,24.4,330.5,0.1,256.5,0"/>
<path class="st5" d="M256.5,147.1v281.4l10.2-9.7c2.8-2.6,67.4-65,67.4-147.3c0-35.2-12.2-67.3-35.3-92.8
	c-17.4-19.2-35.2-28-36-28.4L256.5,147.1"/>
<path class="st2" d="M152.1,140c0-11.5,9.2-20.8,20.5-20.8c11.3,0,20.5,9.3,20.5,20.8c0,11.5-9.2,20.8-20.5,20.8
	C161.3,160.8,152.1,151.4,152.1,140z"/>
<path id="tear" class="st6" d="M346.3,179c0.7-0.3,5.2,18.5,21,33c5.7,5.3,11.3,8.5,12,15c0.6,5.2-2.1,11.1-7,14
	c-7.8,4.6-18.4,0-21-6c-2.3-5.3,2.9-9.2,5-18C360.9,197.9,345.6,179.4,346.3,179z"/>
</svg>
