<?xml version="1.0" encoding="utf-8"?>
<!-- Generator: Adobe Illustrator 22.1.0, SVG Export Plug-In . SVG Version: 6.00 Build 0)  -->
<svg version="1.1" id="Layer_1" xmlns="http://www.w3.org/2000/svg" xmlns:xlink="http://www.w3.org/1999/xlink" x="0px" y="0px"
	 viewBox="0 0 512 512" style="enable-background:new 0 0 512 512;" xml:space="preserve">
<style type="text/css">
	.st0{fill:#E71B3F;stroke:#000000;stroke-width:7;stroke-miterlimit:10;}
	.st1{fill:#FFAB00;stroke:#000000;stroke-width:7;stroke-miterlimit:10;}
	.st2{fill:#BDBDBF;}
	.st3{fill:#AB142F;stroke:#000000;stroke-width:7;stroke-miterlimit:10;}
	.st4{fill:#FFFFFF;stroke:#000000;stroke-width:6;stroke-miterlimit:10;}
	.st5{fill:#BD7F00;stroke:#000000;stroke-width:6;stroke-miterlimit:10;}
	.st6{fill:none;stroke:#000000;stroke-width:5;stroke-miterlimit:10;}
</style>
<path class="st0" d="M256,512l-8.4-5.3c-145-91.9-197-134.1-199.1-135.9l-5.7-4.7v-7.4c0-68.6,4.4-124.7,13.6-171.6
	c9-46.2,22.4-82.4,40.9-110.7C131.3,24.3,181.7,0,256,0s124.7,24.3,158.7,76.4c18.5,28.3,31.9,64.6,40.9,110.7
	c9.1,46.9,13.6,103,13.6,171.6v7.4l-5.7,4.7c-2.1,1.8-54.1,44-199.1,135.9L256,512"/>
<path class="st1" d="M256,428.9l-10.8-10.2c-2.8-2.6-67.4-65-67.4-147.3c0-35.2,12.2-67.3,35.3-92.8c17.4-19.2,35.2-28,36-28.4
	l6.9-3.4l6.9,3.4c0.7,0.4,18.5,9.2,36,28.4c23.1,25.5,35.3,57.5,35.3,92.8c0,82.3-64.6,144.7-67.4,147.3L256,428.9"/>
<polyline class="st2" points="264.4,506.7 256.5,511.7 256.5,511.7 264.4,506.7 "/>
<path class="st3" d="M339.3,160.9c-11.4,0-20.7-9.4-20.7-20.9c0-11.6,9.3-20.9,20.7-20.9c11.4,0,20.7,9.4,20.7,20.9
	C359.9,151.5,350.7,160.9,339.3,160.9 M256.5,0v147.1l6.4,3.1c0.7,0.4,18.5,9.2,36,28.4c23.1,25.5,35.3,57.5,35.3,92.8
	c0,82.3-64.6,144.7-67.4,147.3l-10.2,9.7v83.2l7.8-5c145-91.9,197-134.1,199.1-135.9l5.7-4.7v-7.4c0-68.6-4.4-124.7-13.6-171.6
	c-9-46.2-22.4-82.4-40.9-110.7l0,0C380.8,24.4,330.5,0.1,256.5,0"/>
<path class="st4" d="M113.2,146.8c0-27.1,21.7-49,48.3-49s48.3,21.9,48.3,49s-21.7,49-48.3,49S113.2,173.7,113.2,146.8z"/>
<path class="st5" d="M256.5,428.5l10.2-9.7c2.8-2.6,67.4-65,67.4-147.3c0-35.2-12.2-67.3-35.3-92.8c-17.4-19.2-35.2-28-36-28.4
	l-6.3-3.2"/>
<path class="st5" d="M256.5,147.1"/>
<circle cx="161.5" cy="145.7" r="21"/>
<path class="st4" d="M291,140c0-27.1,21.7-49,48.3-49s48.3,21.9,48.3,49s-21.7,49-48.3,49S291,166.9,291,140z"/>
<circle cx="339.3" cy="140" r="21"/>
<path class="st6" d="M127.1,101.6c3-3.3,9.3-9.6,19.5-13.5c10.4-4,19.5-3.5,24-3"/>
<path class="st6" d="M283.4,385.8c-3.5,2.8-10.9,7.8-21.6,9.8c-11,2.1-19.9,0-24.1-1.4"/>
<path class="st6" d="M328.1,80.6c1.2-0.6,18-8.1,33,1.5c9.3,5.9,12.6,15,13.5,18"/>
</svg>
