<?xml version="1.0" encoding="utf-8"?>
<!-- Generator: Adobe Illustrator 22.1.0, SVG Export Plug-In . SVG Version: 6.00 Build 0)  -->
<svg version="1.1" id="Warstwa_1" xmlns="http://www.w3.org/2000/svg" xmlns:xlink="http://www.w3.org/1999/xlink" x="0px" y="0px"
	 viewBox="0 0 426.4 512" style="enable-background:new 0 0 426.4 512;" xml:space="preserve">
<style type="text/css">
	.st0{fill:#E71B3F;}
	.st1{fill:#FFAB00;}
	.st2{fill:#BDBDBF;}
	.st3{fill:#AB142F;}
	.st4{fill:#FFFFFF;stroke:#333333;stroke-width:6;stroke-miterlimit:10;}
	.st5{fill:#BD7F00;}
	.st6{fill:#333333;}
	.st7{fill:none;stroke:#333333;stroke-width:6;stroke-miterlimit:10;}
</style>
<title>parotfacespeak</title>
<path class="st0" d="M217.6,512l-8.4-5.3c-145-91.9-197-134.1-199.1-135.9l-5.7-4.7v-7.4c0-68.6,4.4-124.7,13.6-171.6
	c9-46.2,22.4-82.4,40.9-110.7C92.9,24.3,143.4,0,217.6,0s124.7,24.3,158.7,76.4c18.5,28.3,31.9,64.6,40.9,110.7
	c9.1,46.9,13.6,103,13.6,171.6v7.4l-5.7,4.7c-2.1,1.8-54.1,44-199.1,135.9L217.6,512"/>
<path class="st1" d="M217.6,429l-10.8-10.2c-2.8-2.6-67.4-65-67.4-147.3c0-35.3,12.2-67.3,35.3-92.8c17.4-19.2,35.2-28,36-28.4
	l6.9-3.4l6.9,3.4c0.7,0.4,18.5,9.2,35.9,28.4c23.1,25.5,35.3,57.5,35.3,92.8c0,82.3-64.6,144.7-67.4,147.3L217.6,429"/>
<polyline class="st2" points="226,506.7 218.2,511.7 218.2,511.7 226,506.7 "/>
<path class="st3" d="M300.9,160.9c-11.6,0.2-21.1-9.1-21.2-20.7c-0.2-11.6,9.1-21.1,20.7-21.2c11.6-0.2,21.1,9.1,21.2,20.7
	c0,0.1,0,0.2,0,0.3C321.6,151.5,312.4,160.9,300.9,160.9 M218.2,0v147.1l6.4,3.1c0.7,0.4,18.5,9.2,36,28.4
	c23.1,25.5,35.3,57.5,35.3,92.8c0,82.3-64.6,144.7-67.4,147.3l-10.3,9.7v83.2l7.9-5c145-91.9,197-134.1,199.1-135.9l5.7-4.7v-7.4
	c0-68.6-4.4-124.7-13.6-171.6c-9-46.2-22.4-82.4-40.9-110.7l0,0C342.4,24.4,292.1,0.1,218.2,0"/>
<ellipse class="st4" cx="301.5" cy="139.5" rx="46.5" ry="41.5"/>
<path class="st5" d="M218.2,147.1v281.4l10.3-9.7c2.8-2.6,67.4-65,67.4-147.3c0-35.3-12.2-67.3-35.3-92.8
	c-17.4-19.2-35.2-28-35.9-28.4L218.2,147.1"/>
<ellipse class="st4" cx="135.1" cy="138.5" rx="46.5" ry="41.5"/>
<path class="st6" d="M113.7,140c0.1-11.3,9.4-20.4,20.8-20.3s20.4,9.4,20.3,20.8c-0.1,11.2-9.3,20.3-20.5,20.3
	C122.8,160.7,113.6,151.4,113.7,140z"/>
<path class="st6" d="M285,308c-28.7,51.6-50.4,88.9-54.4,95c-1.8,2.7-5.4,7.8-11.7,9.8c-0.3,0.1-0.5,0.2-0.8,0.2
	c-2.3,0.5-8.3,0.2-19.5-16c-4.4-6.3-4.4-7.1-8.6-13c-4.6-6.4-9-11.1-12-14c-16.9-46.1-20.7-55.1-21-55c-0.7,0.3,6,44,35.6,59.8
	c11.5,6.2,23.2,6.5,30.4,6.2c5.9-5.2,12-10.8,18-17C259.7,344.9,274.1,325.5,285,308z"/>
<path class="st6" d="M321.6,140c-0.1-11.4-9.5-20.5-20.9-20.4c-11.4,0.1-20.5,9.5-20.4,20.9c0.1,11.3,9.4,20.4,20.7,20.4
	C312.4,160.9,321.6,151.5,321.6,140C321.6,140,321.6,140,321.6,140"/>
<path class="st7" d="M82.2,79.6c12.4-23.1,36.8-37,63-36"/>
<path class="st7" d="M285.6,43.1c28.4,0.5,55,14.2,72,37"/>
</svg>
