<svg xmlns="http://www.w3.org/2000/svg" width="357.84" height="490.04" viewBox="0 0 357.84 490.04">
  <defs>
    <style>
      .cls-1 {
        fill: #f9b233;
      }

      .cls-2 {
        fill: #be1622;
      }

      .cls-3 {
        fill: #cb454e;
      }

      .cls-4 {
        fill: #eee;
      }

      .cls-5 {
        fill: #1d1d1b;
      }

      .cls-6 {
        fill: #3aaa35;
      }
    </style>
  </defs>
  <title>Zasób 2</title>
  <g id="Warstwa_2" data-name="Warstwa 2">
    <g id="Layer_1" data-name="Layer 1">
      <g id="_grupa_" data-name="&lt;grupa&gt;">
        <path class="cls-1" d="M57.92,129.93a43.21,43.21,0,1,1,0-86.42"/>
      </g>
      <g id="_grupa_2" data-name="&lt;grupa&gt;">
        <path class="cls-2" d="M202,454s-75.62-45.87-93.63-64.82C92.13,372.15,65.12,310,65.12,310V75.92A68.42,68.42,0,0,1,133.54,7.5h0A68.42,68.42,0,0,1,202,75.92Z"/>
      </g>
      <g id="_grupa_3" data-name="&lt;grupa&gt;">
        <path class="cls-2" d="M202,454s-75.62-45.87-93.63-64.82C92.13,372.15,65.12,310,65.12,310l-7.2-93.63H202"/>
      </g>
      <g id="_grupa_4" data-name="&lt;grupa&gt;">
        <path class="cls-3" d="M115.53,403.61,65.12,324.39V57.91A50.41,50.41,0,0,1,115.53,7.5h0V403.61Z"/>
      </g>
      <g id="_grupa_5" data-name="&lt;grupa&gt;">
        <circle class="cls-4" cx="129.94" cy="79.52" r="36.01"/>
      </g>
      <path class="cls-5" d="M129.93,36a43.51,43.51,0,1,0,43.52,43.51A43.55,43.55,0,0,0,129.93,36Zm0,72a28.57,28.57,0,0,1-27.5-21h13.1V72h-13.1a28.51,28.51,0,1,1,27.5,36Z"/>
      <g id="_grupa_6" data-name="&lt;grupa&gt;">
        <path class="cls-6" d="M357.84,222.05a281.21,281.21,0,0,1-105.25,89.44A349.93,349.93,0,0,0,216.34,289c-24.3-13.13-28.13-13.2-42.54-21.49-32.39-18.62-48.89-49.68-25.09-74.37h0c12.83-13.3,23.57-21.55,36-23.93,17.2-3.31,31.64,4.22,37.81,7.24C246.75,188.26,287.15,202.93,357.84,222.05Z"/>
      </g>
      <g id="_grupa_7" data-name="&lt;grupa&gt;">
        <path class="cls-1" d="M352.73,225.93a139.73,139.73,0,0,1-15,23.66c-9.84,12.5-14,13.1-15.24,13.21-1.64.14-4.7,0-6.59,2.11-1.63,1.82-1.82,4.71-1.19,5,.88.44,4.15-3.74,4.15-3.74h0c-8.65-.85-10.93-1.2-10.93-1.2-1.7-.27-4.41-.8-9.71-2.18a188.74,188.74,0,0,1-19.91-6.48,344.82,344.82,0,0,1-41.61-19.66c-13.87-7.59-27.4-15.81-40.75-24.31-12.25-7.81-24.34-15.88-36.44-23.93l-4.11-2.73c14.6-3.57,28.56-9.36,42.26-15.54l5.23-2.39,1.19-.54c.64-.3.68-.31,1.27.07l2.4,1.52q4.51,2.85,9.08,5.65,8.94,5.47,18.08,10.64c11.71,6.6,23.68,12.74,36,18.13a289.87,289.87,0,0,0,37.05,13.54A285.81,285.81,0,0,0,352.73,225.93Z"/>
      </g>
      <g id="_grupa_8" data-name="&lt;grupa&gt;">
        <rect class="cls-5" x="122.43" y="410.82" width="15" height="50.41"/>
      </g>
      <g id="_grupa_9" data-name="&lt;grupa&gt;">
        <path class="cls-5" d="M173.45,490h-15a28.52,28.52,0,0,0-57,0h-15a43.52,43.52,0,0,1,87,0Z"/>
      </g>
      <path class="cls-5" d="M50.71,58.21h2.63a79.34,79.34,0,0,0-2.93,21.31v6.9H15.79A35.78,35.78,0,0,1,50.71,58.21Zm-20.3,43.22h20v20A28.61,28.61,0,0,1,30.41,101.43Zm179.05,69.78V79.52A79.5,79.5,0,0,0,59.22,43.21H50.71A50.77,50.77,0,0,0,0,93.92v7.5H15.07a43.6,43.6,0,0,0,35.34,35.35V256.69A207.27,207.27,0,0,0,157.79,438.3l51.67,28.41v-70.3h-15v44.93L165,425.15A192.25,192.25,0,0,1,65.41,256.69V223.86L132.68,222a30.8,30.8,0,0,0,0,6c1.1,11.45,8.24,19.37,11.85,22.83,18.32,10.73,37.57,22.91,57.43,36.72C219.57,299.8,235.79,312,250.68,324l2.6-17-99.6-70c-1.25-3.13-7.83-20.55,1-38,1.5-3,7.8-15.43,21-19.67,3.09-1,8.63-2.2,28.66,2.67a237.31,237.31,0,0,1,29.34,9c30.52,12.24,45.27,21,61,26l53.49,16.89,9.67-12.77S230.68,180.92,209.46,171.21ZM134.68,210l-69.26-1.14V79.52a64.52,64.52,0,0,1,129,0v87a37.57,37.57,0,0,0-10.51-.91c-18,1-33.84,12.42-42.27,26.21A55.05,55.05,0,0,0,134.68,210Z"/>
      <g id="_grupa_10" data-name="&lt;grupa&gt;">
        <rect class="cls-5" x="259.92" y="281.99" width="15" height="28.81" transform="translate(-83.01 487.61) rotate(-76.56)"/>
      </g>
      <g id="_grupa_11" data-name="&lt;grupa&gt;">
        <rect class="cls-5" x="285.96" y="266" width="15" height="28.81" transform="translate(-47.47 500.65) rotate(-76.56)"/>
      </g>
      <g id="_grupa_12" data-name="&lt;grupa&gt;">
        <rect class="cls-5" x="311.99" y="250" width="15" height="28.81" transform="translate(-11.93 513.7) rotate(-76.56)"/>
      </g>
      <g id="_grupa_13" data-name="&lt;grupa&gt;">
        <rect class="cls-5" x="331.02" y="232.34" width="15" height="28.81" transform="translate(19.86 518.65) rotate(-76.56)"/>
      </g>
    </g>
  </g>
</svg>
