<svg xmlns="http://www.w3.org/2000/svg" width="247.58" height="484.78" viewBox="0 0 247.58 484.78">
  <defs>
    <style>
      .cls-1 {
        fill: #be1622;
      }

      .cls-2 {
        fill: #cb454e;
      }

      .cls-3 {
        fill: #3aaa35;
      }

      .cls-4 {
        fill: #eee;
      }

      .cls-5 {
        fill: #f9b233;
      }

      .cls-6 {
        fill: #1d1d1b;
      }
    </style>
  </defs>
  <title>parrottalk</title>
  <g id="Warstwa_2" data-name="Warstwa 2">
    <g id="Layer_1" data-name="Layer 1">
      <g id="_grupa_" data-name="&lt;grupa&gt;">
        <path class="cls-1" d="M203.54,448.77S127.92,402.91,109.91,384C93.71,366.9,66.7,304.73,66.7,304.73V70.66A68.42,68.42,0,0,1,135.12,2.24h0a68.43,68.43,0,0,1,68.42,68.42Z"/>
      </g>
      <g id="_grupa_2" data-name="&lt;grupa&gt;">
        <path class="cls-1" d="M203.54,448.77S127.92,402.91,109.91,384C93.71,366.9,66.7,304.73,66.7,304.73L59.49,211.1h144"/>
      </g>
      <g id="_grupa_3" data-name="&lt;grupa&gt;">
        <path class="cls-2" d="M117.11,398.36,66.69,319.14V52.66A50.42,50.42,0,0,1,117.11,2.25h0V398.36Z"/>
      </g>
      <g id="_grupa_4" data-name="&lt;grupa&gt;">
        <path class="cls-3" d="M239.55,391.16l-108-93.63V221.91a54,54,0,0,1,54-54h0a54,54,0,0,1,54,54V391.16Z"/>
      </g>
      <g id="_grupa_5" data-name="&lt;grupa&gt;">
        <circle class="cls-4" cx="131.51" cy="74.27" r="36.01"/>
      </g>
      <g id="_grupa_6" data-name="&lt;grupa&gt;">
        <polygon class="cls-5" points="239.54 391.16 196.33 355.15 196.33 167.89 239.54 203.9 239.54 391.16"/>
      </g>
      <path class="cls-6" d="M131.51,30.76A43.51,43.51,0,1,0,175,74.27,43.55,43.55,0,0,0,131.51,30.76Zm0,72a28.56,28.56,0,0,1-27.5-21h13.1v-15H104a28.51,28.51,0,1,1,27.5,36Z"/>
      <g id="_grupa_7" data-name="&lt;grupa&gt;">
        <rect class="cls-6" x="145.62" y="297.53" width="15" height="28.81"/>
      </g>
      <g id="_grupa_8" data-name="&lt;grupa&gt;">
        <rect class="cls-6" x="167.23" y="319.14" width="15" height="28.81"/>
      </g>
      <g id="_grupa_9" data-name="&lt;grupa&gt;">
        <rect class="cls-6" x="188.83" y="340.74" width="15" height="28.81"/>
      </g>
      <g id="_grupa_10" data-name="&lt;grupa&gt;">
        <rect class="cls-6" x="210.44" y="355.15" width="15" height="28.81"/>
      </g>
      <g id="_grupa_11" data-name="&lt;grupa&gt;">
        <rect class="cls-6" x="124.01" y="405.56" width="15" height="50.41"/>
      </g>
      <g id="_grupa_12" data-name="&lt;grupa&gt;">
        <path class="cls-6" d="M175,484.78H160a28.51,28.51,0,0,0-57,0H88a43.51,43.51,0,0,1,87,0Z"/>
      </g>
      <g>
        <g id="_grupa_13" data-name="&lt;grupa&gt;">
          <path class="cls-5" d="M59.79,137c-12.3,3.34-24.54.05-31.32-8.34-1.16-1.42-7.18-8.89-5.18-16.89C26.74,98,50.89,94.54,50.11,90.83c-.83-4-27.8,2.64-33.11-6.94-3.74-6.73,5.28-18,7.27-20.83,8-11.5,21.51-18.07,36.88-19.12"/>
        </g>
        <path class="cls-6" d="M212.09,170.23c-.64-25.85.25-63.21,0-87.8C211.51,35.38,178.25,3,134.37.16c-30.79-2-55.89,15.58-71.64,40.45-2.48.35-5.94,0-8.26,0C24,41.61,8.39,56.58,1.4,85.57.93,87.51.48,90,0,92c81.94-7.68,46.13,1.35,15.84,10.82,4.88,26.29,10.33,33.37,36.7,39.55,1.76,34.27,3.28,85.14,5,117,4.43,80.32,46.83,141.36,115.29,178.2C186.22,444.7,210.44,455,225,463c-.53-23.24-1.92-46.64-2.75-69.93-5,.21-10,.44-15,.66.55,14.88,1.42,29.88,1.76,44.67-8.21-4.19-22.12-10.74-29.68-14.6-63.11-32.21-102.74-93-106.79-163.69-.48-8.28-.86-23.29-1.37-32.28,18.83-1.27,37.64-2.17,56.47-3.09,0,1.37,0,1.93.08,3.4,1.5,29.87,3,60,4.31,89.95,4.95-.45,10.06,0,14.91-1-.8-27-3.39-63.16-4-88.33-.75-28.7,17.66-48.55,43.68-47.53s45.94,15.8,45.84,47.43C232.23,283,229,346.72,227.72,403a67.28,67.28,0,0,0,15.12.77c1.46-57,4.38-119.72,4.74-175.21C247.78,197.36,233.63,186.42,212.09,170.23ZM53.86,55.36c.67,0,1.81,0,2.54,0a93.67,93.67,0,0,0-3.84,20.28c-.12,1.68-.23,4.37-.31,6.2A286.79,286.79,0,0,1,18,80.47C24.79,64.21,36.31,56.56,53.86,55.36Zm-22,50.21c6.44-1.76,13.33-2.18,19.88-3.47,0,9,.28,18.06.42,27.08C40.87,125.73,34.83,116.53,31.84,105.57Zm97.8,104c-19.74.33-39.37,3-59.16,2.38-1.75-40.74-5.19-95.57-2.85-133.42C70.19,36.9,98.38,15.45,134,15.6s62.57,28.61,62.88,66.45c.18,23.14-.7,58.83.1,83.8-3.65.35-6.92-.67-10.56-.5C158.46,166.64,137.9,182.8,129.64,209.57Z"/>
      </g>
    </g>
  </g>
</svg>
